<?xml version="1.0" encoding="UTF-8" standalone="no"?>
<!-- Created with Inkscape (http://www.inkscape.org/) -->

<svg
   version="1.1"
   id="svg1"
   width="320"
   height="100"
   viewBox="0 0 320 100"
   sodipodi:docname="logo-orda.svg"
   inkscape:version="1.3.2 (091e20e, 2023-11-25, custom)"
   xmlns:inkscape="http://www.inkscape.org/namespaces/inkscape"
   xmlns:sodipodi="http://sodipodi.sourceforge.net/DTD/sodipodi-0.dtd"
   xmlns:xlink="http://www.w3.org/1999/xlink"
   xmlns="http://www.w3.org/2000/svg"
   xmlns:svg="http://www.w3.org/2000/svg">
  <path
     id="rect8-0-3"
     style="display:inline;fill:url(#linearGradient11)"
     inkscape:label="logo"
     d="m 296.60225,128.86603 a 2.2605863,2.2605863 0 0 1 -2.25976,-2.25977 V 109.7586 a 2.2605863,2.2605863 0 0 1 2.25976,-2.25976 h 5.96875 a 2.2605863,2.2605863 0 0 1 2.25977,2.25976 v 16.84766 a 2.2605863,2.2605863 0 0 1 -2.25977,2.25977 z m -16.51172,-5.21094 a 2.2605863,2.2605863 0 0 1 -2.25976,-2.26172 V 109.7586 a 2.2605863,2.2605863 0 0 1 2.25976,-2.25976 h 5.96875 a 2.2605863,2.2605863 0 0 1 2.25977,2.25976 v 11.63477 a 2.2605863,2.2605863 0 0 1 -2.25977,2.26172 z m -16.51172,-5.86328 a 2.2605863,2.2605863 0 0 1 -2.25976,-2.26172 v -5.77149 a 2.2605863,2.2605863 0 0 1 2.25976,-2.25976 h 5.96875 a 2.2605863,2.2605863 0 0 1 2.25977,2.25976 v 5.77149 a 2.2605863,2.2605863 0 0 1 -2.25977,2.26172 z m 2.24024,-16.06641 a 9.553883,9.553883 0 0 1 -9.55469,-9.554687 V 57.660947 a 9.553883,9.553883 0 0 1 9.55469,-9.554688 h 34.51172 a 9.553883,9.553883 0 0 1 9.55468,9.554688 v 34.509766 a 9.553883,9.553883 0 0 1 -9.55468,9.554687 z m 61.93164,0 a 7.2045377,7.2045377 0 0 1 -7.20508,-7.205078 V 51.278134 a 3.1719241,3.1719241 0 0 1 3.17188,-3.171875 h 3.81835 a 3.1719241,3.1719241 0 0 1 3.17188,3.171875 v 15.201172 a 1.36818,1.36818 0 0 0 1.36914,1.369141 h 21.12891 A 15.939453,15.939453 0 0 1 369.14522,83.7879 v 1.998047 A 15.939453,15.939453 0 0 1 353.20577,101.7254 Z M 498.321,101.26642 a 3.3556259,3.3556259 0 0 1 -3.04687,-1.949223 L 473.73897,52.639463 a 3.5844908,3.5844908 0 0 1 3.25391,-5.085938 h 2.33984 a 4.5577765,4.5577765 0 0 1 4.14648,2.666016 l 4.61524,10.111328 a 1.6245936,1.6245936 0 0 0 1.47851,0.949219 h 23.33789 a 1.6245936,1.6245936 0 0 0 1.47852,-0.949219 l 4.61523,-10.111328 a 4.5577765,4.5577765 0 0 1 4.14649,-2.666016 h 1.87891 a 3.629505,3.629505 0 0 1 3.3125,5.113281 l -20.88086,46.640625 a 3.3140085,3.3140085 0 0 1 -3.02344,1.958989 z M 393.11788,100.98907 A 3.7981679,3.7981679 0 0 1 389.6667,98.776181 L 371.15303,58.491025 a 1.3799205,1.3799205 0 0 0 -1.2539,-0.802734 h -5.36133 c -1.53779,-2.16e-4 -2.78407,-1.247365 -2.78321,-2.785157 v -4.75 c -8.6e-4,-1.537791 1.24542,-2.78494 2.78321,-2.785156 h 63.07226 c 1.5378,2.1e-4 2.78407,1.247361 2.78321,2.785156 v 4.75 c 8.6e-4,1.537796 -1.24541,2.784946 -2.78321,2.785157 h -5.39843 a 1.3862066,1.3862066 0 0 0 -1.25782,0.802734 l -18.71875,40.291016 a 3.8154701,3.8154701 0 0 1 -3.45898,2.207029 z M 242.26045,96.151181 a 2.2605863,2.2605863 0 0 1 -2.25976,-2.261718 v -5.966797 a 2.2605863,2.2605863 0 0 1 2.25976,-2.259766 h 5.77149 a 2.2605863,2.2605863 0 0 1 2.26172,2.259766 v 5.966797 a 2.2605863,2.2605863 0 0 1 -2.26172,2.261718 z m 89.75391,-2.582031 h 17.94141 a 8.9429195,8.9429195 0 0 0 8.94336,-8.943359 8.8384172,8.8384172 0 0 0 -8.94336,-8.732422 h -17.94141 a 1.3069025,1.3069025 0 0 0 -1.30664,1.30664 v 15.0625 a 1.3069025,1.3069025 0 0 0 1.30664,1.306641 z m -64.00781,-1.976562 h 30.13672 a 1.6083175,1.6083175 0 0 0 1.60742,-1.607422 V 59.848447 a 1.6083175,1.6083175 0 0 0 -1.60742,-1.607422 h -30.13672 a 1.6083175,1.6083175 0 0 0 -1.60742,1.607422 v 30.136719 a 1.6083175,1.6083175 0 0 0 1.60742,1.607422 z m 233.42969,-0.990235 a 0.49027488,0.49027488 0 0 0 0.26757,-0.259765 l 8.95118,-20.603516 a 0.58012227,0.58012227 0 0 0 -0.53125,-0.810547 H 492.9128 a 0.59346132,0.59346132 0 0 0 -0.54883,0.818359 l 8.43555,20.585938 a 0.49027488,0.49027488 0 0 0 0.63672,0.269531 z M 395.68038,89.553525 a 1.0064727,1.0064727 0 0 0 1.30468,-0.544922 L 409.2292,59.815244 a 1.534053,1.534053 0 0 0 -1.41406,-2.126953 h -23.98437 a 1.513136,1.513136 0 0 0 -1.38672,2.115234 l 12.68945,29.216797 a 1.0064727,1.0064727 0 0 0 0.54688,0.533203 z M 236.39717,79.639463 a 2.2605863,2.2605863 0 0 1 -2.25976,-2.261719 v -5.966797 a 2.2605863,2.2605863 0 0 1 2.25976,-2.259766 h 11.63477 a 2.2605863,2.2605863 0 0 1 2.26172,2.259766 v 5.966797 a 2.2605863,2.2605863 0 0 1 -2.26172,2.261719 z m 200.61133,-1.03125 a 2.2605863,2.2605863 0 0 1 -2.25976,-2.259766 v -3.427734 a 2.2605863,2.2605863 0 0 1 2.25976,-2.259766 h 27.85742 a 2.2605863,2.2605863 0 0 1 2.25977,2.259766 v 3.427734 a 2.2605863,2.2605863 0 0 1 -2.25977,2.259766 z M 231.18624,63.127744 a 2.2605863,2.2605863 0 0 1 -2.26172,-2.261719 v -5.966797 a 2.2605863,2.2605863 0 0 1 2.26172,-2.261719 h 16.8457 a 2.2605863,2.2605863 0 0 1 2.26172,2.261719 v 5.966797 a 2.2605863,2.2605863 0 0 1 -2.26172,2.261719 z"
     transform="matrix(1,0,0,-1,-216.83272,133.7879)" />
  <defs
     id="defs1">
    <linearGradient
       id="linearGradient10"
       inkscape:collect="always">
      <stop
         style="stop-color:#6fb7f1;stop-opacity:1;"
         offset="0"
         id="stop10" />
      <stop
         style="stop-color:#3b67d6;stop-opacity:1;"
         offset="0.33195427"
         id="stop11" />
    </linearGradient>
    <inkscape:path-effect
       effect="fillet_chamfer"
       id="path-effect10"
       is_visible="true"
       lpeversion="1"
       nodesatellites_param="F,0,0,1,0,2.1473051,0,1 @ F,0,0,1,0,5.6015376,0,1 @ F,0,0,1,0,2.9297052,0,1 @ F,0,0,1,0,1.0442768,0,1 @ F,0,0,1,0,1.0442768,0,1 @ F,0,0,1,0,2.9297052,0,1 @ F,0,0,1,0,5.6015376,0,1 @ F,0,1,1,0,2.1473051,0,1 | F,0,0,1,0,1.1614123,0,1 @ F,0,0,1,0,0.88460405,0,1 @ F,0,0,1,0,0.88460405,0,1"
       radius="0"
       unit="px"
       method="auto"
       mode="F"
       chamfer_steps="1"
       flexible="false"
       use_knot_distance="true"
       apply_no_radius="true"
       apply_with_radius="true"
       only_selected="false"
       hide_knots="false" />
    <inkscape:path-effect
       effect="fillet_chamfer"
       id="path-effect9"
       is_visible="true"
       lpeversion="1"
       nodesatellites_param="F,0,0,1,0,2.2605863,0,1 @ F,0,1,1,0,2.2605863,0,1 @ F,0,1,1,0,2.2605863,0,1 @ F,0,1,1,0,2.2605863,0,1"
       radius="0"
       unit="px"
       method="auto"
       mode="F"
       chamfer_steps="1"
       flexible="false"
       use_knot_distance="true"
       apply_no_radius="true"
       apply_with_radius="true"
       only_selected="false"
       hide_knots="false" />
    <inkscape:path-effect
       effect="fillet_chamfer"
       id="path-effect8"
       is_visible="true"
       lpeversion="1"
       nodesatellites_param="F,0,0,1,0,2.4345066,0,1 @ F,0,0,1,0,0.88448582,0,1 @ F,0,0,1,0,0,0,1 @ F,0,0,1,0,0,0,1 @ F,0,0,1,0,0,0,1 @ F,0,0,1,0,0,0,1 @ F,0,0,1,0,0,0,1 @ F,0,0,1,0,0,0,1 @ F,0,0,1,0,0,0,1 @ F,0,0,1,0,0,0,1 @ F,0,1,1,0,0.88448582,0,1 @ F,0,0,1,0,2.4345066,0,1 | F,0,0,1,0,2.3577131,0,1 @ F,0,0,1,0,2.3069779,0,1 @ F,0,0,1,0,2.3069779,0,1"
       radius="0"
       unit="px"
       method="auto"
       mode="F"
       chamfer_steps="1"
       flexible="false"
       use_knot_distance="true"
       apply_no_radius="true"
       apply_with_radius="true"
       only_selected="false"
       hide_knots="false" />
    <inkscape:path-effect
       effect="fillet_chamfer"
       id="path-effect7"
       is_visible="true"
       lpeversion="1"
       nodesatellites_param="F,0,1,1,0,2.7835911,0,1 @ F,0,0,1,0,2.7835911,0,1 @ F,0,1,1,0,2.7835911,0,1 @ F,0,1,1,0,2.7835911,0,1"
       radius="0"
       unit="px"
       method="auto"
       mode="F"
       chamfer_steps="1"
       flexible="false"
       use_knot_distance="true"
       apply_no_radius="true"
       apply_with_radius="true"
       only_selected="false"
       hide_knots="false" />
    <inkscape:path-effect
       effect="fillet_chamfer"
       id="path-effect6"
       is_visible="true"
       lpeversion="1"
       nodesatellites_param="F,0,0,1,0,7.2045377,0,1 @ F,0,0,1,0,3.1719241,0,1 @ F,0,0,1,0,3.1719241,0,1 @ F,0,0,1,0,1.36818,0,1 @ F,0,0,1,0,15.939453,0,1 @ F,0,1,1,0,15.939453,0,1 | F,0,0,1,0,1.3069025,0,1 @ F,0,0,1,0,8.9429195,0,1 @ F,0,0,1,0,8.9429195,0,1 @ F,0,0,1,0,1.3069025,0,1"
       radius="0"
       unit="px"
       method="auto"
       mode="F"
       chamfer_steps="1"
       flexible="false"
       use_knot_distance="true"
       apply_no_radius="true"
       apply_with_radius="true"
       only_selected="false"
       hide_knots="false" />
    <inkscape:path-effect
       effect="fillet_chamfer"
       id="path-effect4"
       is_visible="true"
       lpeversion="1"
       nodesatellites_param="F,0,0,1,0,9.553883,0,1 @ F,0,1,1,0,9.553883,0,1 @ F,0,1,1,0,9.553883,0,1 @ F,0,1,1,0,9.553883,0,1 | F,0,0,1,0,1.6083175,0,1 @ F,0,0,1,0,1.6083175,0,1 @ F,0,0,1,0,1.6083175,0,1 @ F,0,0,1,0,1.6083175,0,1"
       radius="0"
       unit="px"
       method="auto"
       mode="F"
       chamfer_steps="1"
       flexible="false"
       use_knot_distance="true"
       apply_no_radius="true"
       apply_with_radius="true"
       only_selected="false"
       hide_knots="false" />
    <inkscape:path-effect
       effect="fillet_chamfer"
       id="path-effect3"
       is_visible="true"
       lpeversion="1"
       nodesatellites_param="F,0,0,1,0,9.5078169,0,1 @ F,0,1,1,0,9.5078169,0,1 @ F,0,1,1,0,9.5078169,0,1 @ F,0,1,1,0,9.5078169,0,1 | F,0,0,1,0,0,0,1 @ F,0,0,1,0,0,0,1 @ F,0,0,1,0,0,0,1 @ F,0,0,1,0,0,0,1"
       radius="0"
       unit="px"
       method="auto"
       mode="F"
       chamfer_steps="1"
       flexible="false"
       use_knot_distance="true"
       apply_no_radius="true"
       apply_with_radius="true"
       only_selected="false"
       hide_knots="false" />
    <inkscape:path-effect
       effect="fillet_chamfer"
       id="path-effect2"
       is_visible="true"
       lpeversion="1"
       nodesatellites_param="F,0,0,1,0,0,0,1 @ F,0,0,1,0,0,0,1 @ F,0,0,1,0,0,0,1 @ F,0,0,1,0,0,0,1 | F,0,0,1,0,0,0,1 @ F,0,0,1,0,0,0,1 @ F,0,0,1,0,0,0,1 @ F,0,0,1,0,0,0,1"
       radius="0"
       unit="px"
       method="auto"
       mode="F"
       chamfer_steps="1"
       flexible="false"
       use_knot_distance="true"
       apply_no_radius="true"
       apply_with_radius="true"
       only_selected="false"
       hide_knots="false" />
    <inkscape:path-effect
       effect="fillet_chamfer"
       id="path-effect9-4"
       is_visible="true"
       lpeversion="1"
       nodesatellites_param="F,0,0,1,0,2.2605863,0,1 @ F,0,1,1,0,2.2605863,0,1 @ F,0,1,1,0,2.2605863,0,1 @ F,0,1,1,0,2.2605863,0,1"
       radius="0"
       unit="px"
       method="auto"
       mode="F"
       chamfer_steps="1"
       flexible="false"
       use_knot_distance="true"
       apply_no_radius="true"
       apply_with_radius="true"
       only_selected="false"
       hide_knots="false" />
    <inkscape:path-effect
       effect="fillet_chamfer"
       id="path-effect9-4-8"
       is_visible="true"
       lpeversion="1"
       nodesatellites_param="F,0,0,1,0,2.2605863,0,1 @ F,0,1,1,0,2.2605863,0,1 @ F,0,1,1,0,2.2605863,0,1 @ F,0,1,1,0,2.2605863,0,1"
       radius="0"
       unit="px"
       method="auto"
       mode="F"
       chamfer_steps="1"
       flexible="false"
       use_knot_distance="true"
       apply_no_radius="true"
       apply_with_radius="true"
       only_selected="false"
       hide_knots="false" />
    <inkscape:path-effect
       effect="fillet_chamfer"
       id="path-effect9-4-8-1"
       is_visible="true"
       lpeversion="1"
       nodesatellites_param="F,0,0,1,0,2.2605863,0,1 @ F,0,1,1,0,2.2605863,0,1 @ F,0,1,1,0,2.2605863,0,1 @ F,0,1,1,0,2.2605863,0,1"
       radius="0"
       unit="px"
       method="auto"
       mode="F"
       chamfer_steps="1"
       flexible="false"
       use_knot_distance="true"
       apply_no_radius="true"
       apply_with_radius="true"
       only_selected="false"
       hide_knots="false" />
    <inkscape:path-effect
       effect="fillet_chamfer"
       id="path-effect9-4-4"
       is_visible="true"
       lpeversion="1"
       nodesatellites_param="F,0,0,1,0,2.2605863,0,1 @ F,0,1,1,0,2.2605863,0,1 @ F,0,1,1,0,2.2605863,0,1 @ F,0,1,1,0,2.2605863,0,1"
       radius="0"
       unit="px"
       method="auto"
       mode="F"
       chamfer_steps="1"
       flexible="false"
       use_knot_distance="true"
       apply_no_radius="true"
       apply_with_radius="true"
       only_selected="false"
       hide_knots="false" />
    <inkscape:path-effect
       effect="fillet_chamfer"
       id="path-effect9-4-8-3"
       is_visible="true"
       lpeversion="1"
       nodesatellites_param="F,0,0,1,0,2.2605863,0,1 @ F,0,1,1,0,2.2605863,0,1 @ F,0,1,1,0,2.2605863,0,1 @ F,0,1,1,0,2.2605863,0,1"
       radius="0"
       unit="px"
       method="auto"
       mode="F"
       chamfer_steps="1"
       flexible="false"
       use_knot_distance="true"
       apply_no_radius="true"
       apply_with_radius="true"
       only_selected="false"
       hide_knots="false" />
    <inkscape:path-effect
       effect="fillet_chamfer"
       id="path-effect9-4-8-1-7"
       is_visible="true"
       lpeversion="1"
       nodesatellites_param="F,0,0,1,0,2.2605863,0,1 @ F,0,1,1,0,2.2605863,0,1 @ F,0,1,1,0,2.2605863,0,1 @ F,0,1,1,0,2.2605863,0,1"
       radius="0"
       unit="px"
       method="auto"
       mode="F"
       chamfer_steps="1"
       flexible="false"
       use_knot_distance="true"
       apply_no_radius="true"
       apply_with_radius="true"
       only_selected="false"
       hide_knots="false" />
    <linearGradient
       inkscape:collect="always"
       xlink:href="#linearGradient10"
       id="linearGradient11"
       x1="269.46225"
       y1="113.17669"
       x2="397.46487"
       y2="5.935998"
       gradientUnits="userSpaceOnUse" />
  </defs>
  <sodipodi:namedview
     id="namedview1"
     pagecolor="#505050"
     bordercolor="#ffffff"
     borderopacity="1"
     inkscape:showpageshadow="0"
     inkscape:pageopacity="0"
     inkscape:pagecheckerboard="1"
     inkscape:deskcolor="#505050"
     showguides="true"
     inkscape:zoom="2.7135223"
     inkscape:cx="126.03545"
     inkscape:cy="48.460999"
     inkscape:window-width="1920"
     inkscape:window-height="1009"
     inkscape:window-x="1912"
     inkscape:window-y="-8"
     inkscape:window-maximized="1"
     inkscape:current-layer="svg1" />
</svg>
